inDegrees=no
num_controls=7
num_derivatives=13
num_iterations=114
num_multipliers=7
num_parameters=0
num_slacks=7
num_states=26
objective=0.545143
objective_accelerations=0.042116
objective_balance=0.003902
objective_effort=0.041108
objective_height=0.448568
objective_ligament=0.009449
solver_duration=1275.751391
status=Solve_Succeeded
success=true
DataType=double
version=3
OpenSimVersion=4.5
endheader
time	/jointset/ground_pelvis/pelvis_tilt/value	/jointset/ground_pelvis/pelvis_tx/value	/jointset/ground_pelvis/pelvis_ty/value	/jointset/hip_r/hip_flexion_r/value	/jointset/hip_r/hip_adduction_r/value	/jointset/hip_r/hip_rotation_r/value	/jointset/back/lumbar_extension/value	/jointset/patellofemoral_r/patellar_flexion_r/value	/jointset/knee_r/knee_flexion_r/value	/jointset/knee_r/knee_adduction_r/value	/jointset/knee_r/knee_rotation_r/value	/jointset/ankle_r/ankle_angle_r/value	/jointset/subtalar_r/subtalar_angle_r/value	/jointset/ground_pelvis/pelvis_tilt/speed	/jointset/ground_pelvis/pelvis_tx/speed	/jointset/ground_pelvis/pelvis_ty/speed	/jointset/hip_r/hip_flexion_r/speed	/jointset/hip_r/hip_adduction_r/speed	/jointset/hip_r/hip_rotation_r/speed	/jointset/back/lumbar_extension/speed	/jointset/patellofemoral_r/patellar_flexion_r/speed	/jointset/knee_r/knee_flexion_r/speed	/jointset/knee_r/knee_adduction_r/speed	/jointset/knee_r/knee_rotation_r/speed	/jointset/ankle_r/ankle_angle_r/speed	/jointset/subtalar_r/subtalar_angle_r/speed	/forceset/tau_hip_flexion_r	/forceset/tau_hip_adduction_r	/forceset/tau_hip_rotation_r	/forceset/tau_knee_flexion_r	/forceset/tau_ankle_angle_r	/forceset/tau_subtalar_angle_r	/forceset/tau_lumbar_extension	lambda_cid13_p0	lambda_cid14_p0	lambda_cid14_p1	lambda_cid14_p2	lambda_cid14_p3	lambda_cid14_p4	lambda_cid14_p5	/jointset/ground_pelvis/pelvis_tilt/accel	/jointset/ground_pelvis/pelvis_tx/accel	/jointset/ground_pelvis/pelvis_ty/accel	/jointset/hip_r/hip_flexion_r/accel	/jointset/hip_r/hip_adduction_r/accel	/jointset/hip_r/hip_rotation_r/accel	/jointset/back/lumbar_extension/accel	/jointset/patellofemoral_r/patellar_flexion_r/accel	/jointset/knee_r/knee_flexion_r/accel	/jointset/knee_r/knee_adduction_r/accel	/jointset/knee_r/knee_rotation_r/accel	/jointset/ankle_r/ankle_angle_r/accel	/jointset/subtalar_r/subtalar_angle_r/accel	gamma_cid13_p0	gamma_cid14_p0	gamma_cid14_p1	gamma_cid14_p2	gamma_cid14_p3	gamma_cid14_p4	gamma_cid14_p5
0	-0.006515020196563917	0.09626011126864721	0.9427241333943033	0.1762555222360518	-0.2321521356952275	-0.2616402059660849	-0.038598046466844	0.07317863873449852	0.07317863873451017	0.1745315751062121	0.1745323236861791	0.03247278518263602	-0.003451387177272989	0	0	0	0	0	0	0	0	0	0	0	0	0	0.2379162432183367	-0.1567045877273347	-0.04446114032718944	-0.4063810882054221	0.3808929214844877	-0.1470990293622435	-0.1344651579908233	-39.07576889835934	71.78951820313793	-41.40613910614289	-4.257387408320962	-17.99452640017103	-682.177124349206	54.8411392657686	-2.965744444176354	-1.632467033662244	-0.6896326139119903	10.33279246907085	0.224199766746782	2.297255521157326	-5.466589345707715	8.722241605026264	8.722241605028367	-2.815066205265049	0.1396036492461879	2.12078361284871	0.7054846831396822	8.312168759768096e-08	4.824388852127923e-08	-5.614202268349685e-07	1.421693070855628e-07	2.427608646779249e-08	3.963030723016591e-08	-2.404838193933143e-07
0.01	-0.006656932454015506	0.09617995894414781	0.9426908692171103	0.1767569953377094	-0.2321394043295629	-0.2615180340158303	-0.0388732404762869	0.07360136319698671	0.07360136319700124	0.174390471930054	0.1745281173116514	0.03257577741243915	-0.003415290169576156	-0.02836741859167028	-0.01591747865889425	-0.006638019910257322	0.09987754705984596	0.002535407405117335	0.02427203884084373	-0.05460353342184896	0.08410293451184213	0.0841029345118436	-0.02806417412736546	-0.0008173852681926132	0.0205120791560725	0.0071904007105145	0.2345907239723876	-0.1675635198685823	-0.04381627222047788	-0.4042431530222488	0.3769260436116294	-0.13547316780637	-0.1313472174146395	-39.08977609847046	70.9583151132652	-36.57127233555499	-4.949718427008323	-18.54586728179675	-682.8404396452185	64.22955960790996	-2.76998199330292	-1.554435489119789	-0.6486564243236066	9.75267878547294	0.2665157115840877	2.467863308139986	-5.391945071416332	8.188009052349432	8.188009052348416	-2.778699181551555	-0.1887795786773811	2.003480888635438	0.7213952815748463	1.136167229915748e-07	5.303598089109042e-08	-7.363942196308603e-07	1.521706697231215e-07	5.239393155743932e-08	-1.36961981587417e-07	-2.957954790672517e-07
0.02	-0.007082067182689409	0.09594402239163768	0.9425916708918666	0.1782447325021683	-0.2321016579930098	-0.2611580046286395	-0.03968141176614846	0.07485185494017969	0.07485185494017817	0.1739734057796092	0.174516463091741	0.03288130259813291	-0.003308173651460559	-0.05664449424902129	-0.03115684560214309	-0.01318682961020307	0.197252812560975	0.005002994177826945	0.04757148738536743	-0.1065954560834885	0.1655534561471348	0.1655534561471264	-0.05519259485790493	-0.001489569089401998	0.040506591178108	0.01420390208373293	0.2312652047262128	-0.1784224520098106	-0.04317140411367795	-0.4021052178392317	0.3729591657387206	-0.1238473062504889	-0.1282292768386038	-39.13106418565855	70.20380782132786	-31.74248276541963	-5.618797481619601	-19.20489181016723	-682.2840946703805	73.39264045894254	-2.947675857313063	-1.496844690532619	-0.6717905718496943	9.832336157327383	0.2106356402652222	2.102737461893322	-4.9442671936662	8.191759029716318	8.191759029716145	-2.627915525899801	0.1686439386428394	2.017270186041913	0.6701048156805939	1.441117583854687e-07	5.782807326090161e-08	-9.113682124267523e-07	1.621720323606801e-07	8.051177664708616e-08	-3.13554270405e-07	-3.511071387411891e-07
0.03	-0.007788301312040923	0.09555792848732141	0.9424271761628721	0.1806943819186974	-0.2320402595292147	-0.260572023368436	-0.04099724928245024	0.07690528892634037	0.0769052889263422	0.173291064843986	0.1745012701493666	0.03338324646575024	-0.003132719311890397	-0.08441561129625223	-0.04606210186512134	-0.01971360319965302	0.2922478185093075	0.007214168068136612	0.06950280409385895	-0.156267587632345	0.2447718653199205	0.2447718653199347	-0.08102090790712534	-0.001554403425240754	0.05969005120068491	0.02077816616588314	0.2216749263830667	-0.1832844341687447	-0.04049919080855853	-0.3885348509596838	0.3512153805250039	-0.1111216274425876	-0.1209957943200672	-39.19848862044919	63.77241560792313	-27.42213295914756	-6.215832740142283	-15.10081821519555	-681.1040221362994	80.53493941571752	-2.663804645372581	-1.487374867377137	-0.6434072285454979	9.268705496402195	0.2168696358253451	2.220083393614712	-4.933017204870138	7.732631550553251	7.732631550556753	-2.522215042579957	-0.09479129336798041	1.840093138603965	0.6346414543772861	1.622525328072745e-07	6.289347388118961e-08	-1.019190075514869e-06	1.617164094669568e-07	9.283753102199109e-08	-4.072348585817771e-07	-3.762299629260206e-07
0.04	-0.008766641615232893	0.09502278026573735	0.9421973564027728	0.1840811059312941	-0.2319586470520355	-0.259770378017495	-0.042800674328111	0.07974005694213028	0.07974005694212996	0.172358055608243	0.1744852800289016	0.03407126677924217	-0.002894811481519542	-0.1110657290213407	-0.06096770905569547	-0.02625183583120455	0.3846677317702864	0.009045796854909496	0.09070430553385612	-0.2041129619562647	0.3218202620724526	0.3218202620724903	-0.1053262548822181	-0.001649004707908491	0.07772188035280546	0.02669460024383738	0.2120846480399681	-0.1881464163276843	-0.03782697750342579	-0.3749644840801111	0.3294715953112924	-0.09839594863469076	-0.1137623118014971	-39.29074951757764	57.41029108162564	-23.10178422822122	-6.799011723812503	-11.09530334438533	-678.8333580456372	87.48137828969058	-2.723475992885093	-1.496914876051284	-0.6740823802700264	9.317317619856579	0.1347266195578589	1.956774408194415	-4.578915748679197	7.757756545665525	7.757756545665559	-2.323322311074231	0.1626905492770859	1.78694401195122	0.5385388148415259	1.80138580198728e-07	6.796450972313691e-08	-1.125627358609011e-06	1.610451786241348e-07	1.048376752790663e-07	-4.992059271577128e-07	-4.007303368945819e-07
0.05	-0.01000708069662899	0.09433924716604028	0.9419018755512539	0.1883799772737203	-0.2318603476649196	-0.2587618587816112	-0.04507242578970759	0.08333516343167455	0.08333516343168633	0.1711891726824111	0.174469600957534	0.03493487679395053	-0.002600472232639062	-0.1369005829511818	-0.07566853312027487	-0.03285921427425507	0.4746572549756104	0.0105767723558806	0.1108558805908999	-0.2498877233692898	0.3968198970236904	0.3968198970237462	-0.1282273251779521	-0.001496204451232047	0.09488547061868351	0.03211044439515449	0.2048621855138714	-0.1750859658357817	-0.0361895895473477	-0.3679832762949024	0.3223437591590969	-0.1050880279867329	-0.1080388469724829	-39.40632460607754	54.9995571750258	-26.45967266956428	-6.230072665148641	-9.896274702073478	-677.1068549193485	79.30159791253165	-2.495241233005203	-1.446088441271974	-0.6563981310009565	8.772390766917015	0.1565473132706273	2.022854048919009	-4.524315289527594	7.313859975509558	7.313859975512263	-2.240212138979233	-0.05976287923359237	1.66390653099404	0.5335263797887201	1.76725634650488e-07	6.245010702774868e-08	-1.087719088485709e-06	1.572135359593421e-07	1.086350893237685e-07	-5.636411942318829e-07	-3.911589714693375e-07
